SpongeBob SquarePants takes leave from the town of Bikini Bottom in order to track down King Neptune's stolen crown.

I got this down to a nice small size, the source I worked with was about the only one available at the time so in the beginning of the movie when it's live people you will notice some pixel issues of the sky background, however once it hits that actual animation and main movie it looks really nice.

Here is the file Media Info

General
Complete name : M:Kids MoviesSpongebob The MovieSpongebob.mp4
Format : MPEG-4
Format profile : Base Media / Version 2
Codec ID : mp42
File size : 602 MiB
Duration : 1h 27mn
Overall bit rate mode : Variable
Overall bit rate : 965 Kbps
Encoded date : UTC 2013-03-28 08:47:22
Tagged date : UTC 2013-03-28 09:04:37
Writing application : HandBrake 0.9.8 2012071700

Video
ID : 1
Format : AVC
Format/Info : Advanced Video Codec
Format profile : Main@L3.1
Format settings, CABAC : Yes
Format settings, ReFrames : 4 frames
Codec ID : avc1
Codec ID/Info : Advanced Video Coding
Duration : 1h 27mn
Bit rate mode : Variable
Bit rate : 800 Kbps
Width : 1 280 pixels
Height : 720 pixels
Display aspect ratio : 16:9
Frame rate mode : Variable
Frame rate : 23.976 fps
Minimum frame rate : 23.974 fps
Maximum frame rate : 90 000.000 fps
Color space : YUV
Chroma subsampling : 4:2:0
Bit depth : 8 bits
Scan type : Progressive
Bits/(Pixel*Frame) : 0.036
Stream size : 499 MiB (83%)
Writing library : x264 core 120
Encoding settings : cabac=1 / ref=1 / deblock=1:0:0 / analyse=0x1:0x111 / me=hex / subme=2 / psy=1 / psy_rd=1.00:0.00 / mixed_ref=0 / me_range=16 / chroma_me=1 / trellis=0 / 8x8dct=0 / cqm=0 / deadzone=21,11 / fast_pskip=1 / chroma_qp_offset=0 / threads=9 / sliced_threads=0 / nr=0 / decimate=1 / interlaced=0 / bluray_compat=0 / constrained_intra=0 / bframes=3 / b_pyramid=2 / b_adapt=1 / b_bias=0 / direct=1 / weightb=1 / open_gop=0 / weightp=1 / keyint=240 / keyint_min=24 / scenecut=40 / intra_refresh=0 / rc_lookahead=10 / rc=2pass / mbtree=1 / bitrate=800 / ratetol=1.0 / qcomp=0.60 / qpmin=3 / qpmax=69 / qpstep=4 / cplxblur=20.0 / qblur=0.5 / ip_ratio=1.40 / aq=1:1.00
Encoded date : UTC 2013-03-28 08:47:22
Tagged date : UTC 2013-03-28 09:04:37
Color primaries : BT.709
Transfer characteristics : BT.709
Matrix coefficients : BT.709

Audio
ID : 2
Format : AAC
Format/Info : Advanced Audio Codec
Format profile : LC
Codec ID : 40
Duration : 1h 27mn
Bit rate mode : Variable
Bit rate : 160 Kbps
Maximum bit rate : 328 Kbps
Channel(s) : 2 channels
Channel positions : Front: L R
Sampling rate : 48.0 KHz
Compression mode : Lossy
Delay relative to video : 83ms
Stream size : 99.6 MiB (17%)
Language : English
Encoded date : UTC 2013-03-28 08:47:22
Tagged date : UTC 2013-03-28 09:04:36

Text
ID : 3
Format : Apple text
Codec ID : text
Duration : 1h 27mn
Bit rate mode : Variable
Bit rate : 1 bps
Stream size : 327 Bytes (0%)
Encoded date : UTC 2013-03-28 08:47:22
Tagged date : UTC 2013-03-28 09:04:37

This file was encoded by PcTechPaul

Please help Seed this to at least a few copies before jumping removing this helps everyone get it quicker and I don't have a seed-box to host everything I put up forever.

Positive Comments welcome, as for the rest of you! Don't get me started.

Source File was 3.4GB MKV and was the best I could find to work with so for the beginning issues that was part of the source file issue. But again the part that matters animation wise for the kids looks nice. So bear with the first minute on quality and all will be fine.

Enjoy 